<?xml version="1.0" encoding="utf-8"?>
<!-- Generator: Adobe Illustrator 26.3.1, SVG Export Plug-In . SVG Version: 6.00 Build 0)  -->
<svg version="1.1" id="Layer_1" xmlns="http://www.w3.org/2000/svg" xmlns:xlink="http://www.w3.org/1999/xlink" x="0px" y="0px"
	 viewBox="0 0 1024 1024" style="enable-background:new 0 0 1024 1024;" xml:space="preserve">
<style type="text/css">
	.st0{fill:#E60012;}
</style>
<symbol  id="Favorite" viewBox="-32 -30.49 64 60.98">
	<g>
		<path class="st0" d="M14.7,30.49c0.9,0,1.87-0.05,2.9-0.15c6.27-0.61,13.52-6.35,14.4-17.35V9.32C31.18-1.21,23.23-14.19,0-30.49
			C-23.23-14.19-31.18-1.21-32,9.32v3.66c0.88,11,8.13,16.74,14.4,17.35c1.03,0.1,1.99,0.15,2.9,0.15c7.24,0,10.72-3.13,14.7-7.87
			C3.98,27.35,7.45,30.49,14.7,30.49 M14.7,23.49c-4.16,0-5.9-1.28-9.33-5.37L0,11.72l-5.36,6.39c-3.44,4.1-5.17,5.37-9.34,5.37
			c-0.68,0-1.43-0.04-2.22-0.12c-2.89-0.28-7.4-3.36-8.08-10.69V9.62c0.85-9.2,9.25-19.77,25-31.47C15.74-10.15,24.15,0.42,25,9.62
			v3.06c-0.69,7.32-5.19,10.4-8.08,10.69C16.12,23.45,15.38,23.49,14.7,23.49L14.7,23.49z"/>
	</g>
</symbol>
<g>
	<defs>
		<rect id="SVGID_1_" x="0" y="24.31" width="1024.01" height="975.53"/>
	</defs>
	<clipPath id="SVGID_00000153676344777565148900000017568476523745215636_">
		<use xlink:href="#SVGID_1_"  style="overflow:visible;"/>
	</clipPath>
	<g style="clip-path:url(#SVGID_00000153676344777565148900000017568476523745215636_);">
		
			<use xlink:href="#Favorite"  width="64" height="60.98" id="XMLID_00000132810835880362721210000014216087118109993389_" x="-32" y="-30.49" transform="matrix(16.0002 0 0 -16.0002 512.0084 512)" style="overflow:visible;"/>
	</g>
</g>
</svg>
