<?xml version="1.0" encoding="utf-8"?>
<!-- Generator: Adobe Illustrator 26.3.1, SVG Export Plug-In . SVG Version: 6.00 Build 0)  -->
<svg version="1.1" id="Layer_1" xmlns="http://www.w3.org/2000/svg" xmlns:xlink="http://www.w3.org/1999/xlink" x="0px" y="0px"
	 viewBox="0 0 1024 1024" style="enable-background:new 0 0 1024 1024;" xml:space="preserve">
<style type="text/css">
	.st0{fill:none;}
	.st1{fill:#E60012;}
</style>
<g>
	<path class="st0" d="M643.09,201.71c34.54,14.61,66.03,34.66,93.86,59.69l122.46-118.26C770.87,59.62,657.31,11.47,536,5.85v170.24
		C572.98,178.68,608.91,187.26,643.09,201.71z"/>
	<path class="st0" d="M201.71,380.91c14.61-34.54,34.66-66.03,59.69-93.86L143.14,164.58C59.62,253.13,11.47,366.69,5.85,488h170.24
		C178.68,451.02,187.26,415.09,201.71,380.91z"/>
	<path class="st0" d="M643.09,822.29c-34.18,14.46-70.11,23.04-107.09,25.62v170.24c115.42-5.35,223.83-49.19,310.35-125.38
		L728.08,770.3C702.48,791.77,674.01,809.21,643.09,822.29z"/>
	<path class="st0" d="M822.29,643.09c-14.61,34.54-34.66,66.03-59.69,93.86l118.26,122.46c83.53-88.55,131.68-202.11,137.29-323.41
		H847.91C845.32,572.98,836.74,608.91,822.29,643.09z"/>
	<path class="st0" d="M201.71,643.09c-14.46-34.18-23.03-70.11-25.62-107.09H5.85c5.35,115.42,49.19,223.82,125.38,310.35
		L253.7,728.07C232.23,702.48,214.79,674.01,201.71,643.09z"/>
	<path class="st0" d="M822.29,380.91c14.46,34.18,23.04,70.11,25.62,107.09h170.24c-5.35-115.42-49.19-223.82-125.38-310.35
		L770.3,295.92C791.77,321.52,809.21,349.99,822.29,380.91z"/>
	<path class="st0" d="M380.91,822.29c-34.54-14.61-66.03-34.66-93.86-59.69L164.58,880.86c88.55,83.53,202.11,131.68,323.42,137.29
		V847.91C451.02,845.32,415.09,836.74,380.91,822.29z"/>
	<path class="st0" d="M380.91,201.71c34.18-14.46,70.11-23.04,107.09-25.62V5.85C372.58,11.2,264.17,55.04,177.65,131.23
		L295.93,253.7C321.52,232.23,349.99,214.79,380.91,201.71z"/>
	<path class="st1" d="M175.24,512c0-8.05,0.29-16.05,0.85-24H5.85c-0.37,7.97-0.56,15.97-0.56,24c0,8.03,0.19,16.03,0.56,24h170.24
		C175.53,528.05,175.24,520.05,175.24,512z"/>
	<path class="st1" d="M848.76,512c0,8.05-0.29,16.05-0.85,24h170.24c0.37-7.97,0.56-15.97,0.56-24s-0.19-16.03-0.56-24H847.91
		C848.47,495.95,848.76,503.95,848.76,512z"/>
	<path class="st1" d="M512,175.24c8.05,0,16.05,0.29,24,0.85V5.85c-7.97-0.37-15.97-0.56-24-0.56c-8.03,0-16.03,0.19-24,0.56v170.24
		C495.95,175.53,503.95,175.24,512,175.24z"/>
	<path class="st1" d="M512,848.76c-8.05,0-16.05-0.29-24-0.85v170.24c7.97,0.37,15.97,0.56,24,0.56c8.03,0,16.03-0.19,24-0.56
		V847.91C528.05,848.47,520.05,848.76,512,848.76z"/>
	<path class="st1" d="M750.12,750.12c-7.08,7.08-14.44,13.8-22.05,20.18l118.27,122.47c8.18-7.21,16.17-14.7,23.95-22.47
		c3.58-3.58,7.1-7.21,10.56-10.88L762.6,736.95C758.56,741.44,754.42,745.83,750.12,750.12z"/>
	<path class="st1" d="M273.88,273.88c7.08-7.08,14.45-13.8,22.05-20.18L177.65,131.22c-8.18,7.21-16.17,14.7-23.95,22.48
		c-3.58,3.58-7.1,7.21-10.56,10.88L261.4,287.05C265.44,282.56,269.58,278.17,273.88,273.88z"/>
	<path class="st1" d="M273.88,750.12c-7.08-7.08-13.8-14.45-20.18-22.05L131.22,846.35c7.21,8.18,14.7,16.17,22.48,23.95
		c3.58,3.58,7.21,7.1,10.88,10.56L287.05,762.6C282.56,758.56,278.17,754.42,273.88,750.12z"/>
	<path class="st1" d="M859.42,143.14L736.95,261.4c4.48,4.03,8.88,8.18,13.17,12.47c7.08,7.08,13.8,14.44,20.18,22.05l122.47-118.27
		c-7.21-8.18-14.7-16.17-22.48-23.95C866.72,150.12,863.08,146.6,859.42,143.14z"/>
	<path class="st1" d="M307.82,307.82c6.9-6.9,14.09-13.4,21.53-19.51l-33.42-34.61c-7.6,6.38-14.97,13.09-22.05,20.18
		c-4.29,4.29-8.44,8.69-12.47,13.17l33.44,34.63C299.01,316.94,303.32,312.31,307.82,307.82z"/>
	<path class="st1" d="M716.18,716.18c-6.9,6.9-14.09,13.4-21.53,19.51l33.42,34.61c7.6-6.38,14.97-13.09,22.05-20.18
		c4.29-4.29,8.44-8.69,12.47-13.17l-33.44-34.63C724.99,707.06,720.68,711.69,716.18,716.18z"/>
	<path class="st1" d="M716.18,307.82c6.9,6.9,13.4,14.09,19.51,21.53l34.61-33.42c-6.38-7.6-13.09-14.97-20.18-22.05
		c-4.29-4.29-8.69-8.44-13.17-12.47l-34.63,33.44C707.06,299.01,711.69,303.32,716.18,307.82z"/>
	<path class="st1" d="M307.82,716.18c-6.9-6.9-13.4-14.09-19.51-21.53l-34.61,33.42c6.38,7.61,13.09,14.97,20.18,22.05
		c4.29,4.29,8.69,8.44,13.17,12.47l34.63-33.44C316.94,724.99,312.31,720.68,307.82,716.18z"/>
	<path class="st1" d="M5.85,488H0v48h5.85c-0.37-7.97-0.56-15.97-0.56-24S5.48,495.97,5.85,488z"/>
	<path class="st1" d="M1018.15,536h5.85v-48h-5.85c0.37,7.97,0.56,15.97,0.56,24C1018.71,520.03,1018.52,528.03,1018.15,536z"/>
	<path class="st1" d="M536,5.85V0h-48v5.85c7.97-0.37,15.97-0.56,24-0.56C520.03,5.29,528.03,5.48,536,5.85z"/>
	<path class="st1" d="M488,1018.15v5.85h48v-5.85c-7.97,0.37-15.97,0.56-24,0.56C503.97,1018.71,495.97,1018.52,488,1018.15z"/>
</g>
</svg>
